<svg width="533" height="560" viewBox="0 0 533 560" fill="none" xmlns="http://www.w3.org/2000/svg">
<path opacity="0.1" d="M477.537 357.164C476.438 368.255 466.541 377.248 455.445 377.248H265.51C256.613 377.248 249.715 371.453 247.916 363.459C254.013 358.063 262.011 354.566 269.908 353.068C281.604 350.869 293.2 352.568 304.596 353.967C332.287 357.364 360.677 359.662 388.867 353.567C417.058 347.472 445.248 331.885 461.343 307.105C471.639 291.218 476.238 272.833 479.337 254.747C485.934 216.778 486.734 178.409 481.936 141.439C480.236 128.25 477.737 115.061 478.037 101.572C478.337 88.0826 481.736 73.7942 490.533 62.5034C495.131 56.6081 501.329 51.7121 508.127 48.8145C509.426 54.5098 509.926 37.3238 477.537 357.164Z" fill="#20B757"/>
<path d="M403.563 346.774C403.163 350.371 399.964 353.269 396.365 353.269H329.288C325.689 353.269 323.09 350.371 323.49 346.774L325.789 324.592C326.189 320.995 329.388 318.098 332.987 318.098H400.064C403.163 318.098 405.462 320.196 405.862 323.094C406.062 324.393 405.962 323.293 403.563 346.774Z" fill="#FC6054"/>
<path d="M403.563 346.773C403.163 350.37 399.964 353.268 396.365 353.268H329.288C325.689 353.268 323.09 350.37 323.49 346.773L323.69 344.475C327.289 344.675 340.784 347.073 354.479 346.673C364.176 346.373 374.073 344.675 383.169 340.478C390.067 337.281 396.465 332.784 401.763 327.189C403.063 325.79 404.362 324.291 405.862 322.992C406.062 324.391 405.962 323.292 403.563 346.773Z" fill="#E64B38"/>
<path d="M429.392 168.713C456.988 142.464 460.136 100.996 436.425 76.0911C412.713 51.1866 371.12 52.2768 343.524 78.5261C315.929 104.775 312.78 146.244 336.492 171.148C360.203 196.053 401.796 194.963 429.392 168.713Z" fill="white"/>
<path opacity="0.1" d="M429.154 169.019C401.763 194.799 360.677 196.097 336.885 171.517C330.088 164.423 325.089 155.63 322.49 145.738C342.184 180.41 391.267 184.707 423.356 154.631C443.449 135.647 450.347 109.168 444.649 87.0859C458.544 111.566 453.745 145.838 429.154 169.019Z" fill="#20B757"/>
<path d="M455.345 378.147H265.509C253.813 378.147 245.316 368.654 246.516 356.964L277.505 54.8091C278.705 43.2185 289.001 33.8262 300.598 33.8262H490.433C502.129 33.8262 510.626 43.3185 509.426 55.009L478.437 357.164C477.337 368.754 466.941 378.147 455.345 378.147ZM300.598 35.9245C290.001 35.9245 280.604 44.5175 279.505 55.1089L248.515 357.264C247.416 367.755 255.013 376.248 265.509 376.248H455.345C465.941 376.248 475.338 367.655 476.438 357.064L507.427 54.9091C508.527 44.4176 500.929 35.9245 490.433 35.9245H300.598Z" fill="#112544"/>
<path d="M429.154 169.017C401.763 194.796 360.677 196.095 336.885 171.515C349.781 158.525 367.475 150.432 386.268 150.432C403.662 150.532 418.857 157.626 429.154 169.017Z" fill="#20B757"/>
<path d="M367.675 96.6758C367.675 96.6758 363.876 99.1737 366.875 108.766L374.872 97.2753L367.675 96.6758Z" fill="#112544"/>
<path d="M366.675 142.84C367.075 142.84 371.673 142.44 372.273 142.44C371.373 150.134 369.874 155.03 369.974 155.429C370.974 165.122 398.964 165.022 400.264 154.63L402.763 122.057L411.26 103.971L375.672 91.1816C375.672 91.1816 371.473 99.9745 365.376 109.067C363.976 111.165 361.977 114.463 360.677 117.061C360.177 118.06 359.677 119.259 359.278 120.458C355.679 129.75 354.379 142.44 366.675 142.84Z" fill="#FCBBA4"/>
<path d="M368.874 155.529C368.874 155.129 368.974 154.729 369.574 152.232C369.674 151.732 370.174 151.332 370.774 151.432C371.274 151.532 371.673 152.132 371.574 152.631C371.274 153.93 370.974 155.129 370.974 155.429C371.973 163.822 398.064 163.722 399.264 154.53L399.364 152.631C399.364 152.032 399.864 151.632 400.464 151.732C401.063 151.732 401.463 152.232 401.363 152.831L401.263 154.829C399.764 166.32 370.074 166.42 368.874 155.529ZM365.476 91.7806C365.576 96.8765 369.574 99.7741 371.374 101.073C384.069 110.366 396.465 103.071 396.465 103.071C393.466 111.165 400.364 112.164 400.364 112.164C397.565 113.263 395.765 118.659 398.064 126.752L406.062 125.453C406.562 124.754 406.761 123.855 407.361 123.355C444.349 91.7806 400.364 70.8975 382.27 73.7952C372.973 75.294 368.974 80.8894 367.075 85.5856C365.875 88.6831 365.476 91.281 365.476 91.7806ZM374.772 107.967C374.373 108.767 372.973 107.768 371.174 106.868C369.374 105.969 367.775 105.469 368.275 104.67C368.674 103.871 370.574 104.071 372.373 104.97C374.073 105.769 375.172 107.168 374.772 107.967Z" fill="#112544"/>
<path d="M387.168 113.263C386.768 114.062 385.369 113.163 383.569 112.263C381.77 111.364 380.171 110.964 380.57 110.165C380.97 109.366 382.77 109.466 384.669 110.365C386.468 111.164 387.668 112.463 387.168 113.263Z" fill="#112544"/>
<path d="M371.673 122.054C369.174 121.954 365.475 120.255 366.275 117.957C366.575 117.058 367.475 116.658 368.174 116.359C370.074 115.559 371.773 114.16 372.973 112.562C373.273 112.162 373.972 112.062 374.372 112.362C374.772 112.662 374.872 113.361 374.572 113.761C371.773 117.558 368.374 118.257 368.174 118.657C368.174 118.657 368.374 118.857 368.674 119.056C369.574 119.656 370.674 119.956 371.773 120.056C372.373 120.056 372.773 120.555 372.673 121.155C372.673 121.554 372.273 122.054 371.673 122.054Z" fill="#E2805D"/>
<path d="M396.465 121.057C395.465 124.854 397.365 128.351 400.764 128.95C404.162 129.45 407.661 126.852 408.661 123.055C409.66 119.258 407.761 115.761 404.362 115.162C400.963 114.562 397.465 117.26 396.465 121.057Z" fill="#FCBBA4"/>
<path d="M366.075 109.367C366.075 108.767 366.475 108.367 366.975 108.268C367.475 108.268 367.975 108.667 368.075 109.167C368.075 109.467 368.374 110.366 370.074 110.266C370.674 110.266 371.073 110.666 371.173 111.165C371.173 111.765 370.774 112.164 370.274 112.264C367.575 112.364 366.175 110.865 366.075 109.367ZM378.071 114.862C378.071 114.263 378.471 113.863 378.971 113.763C379.571 113.763 379.97 114.163 380.07 114.662C380.07 114.962 380.37 115.861 382.07 115.761C382.57 115.761 383.069 116.161 383.169 116.661C383.169 117.26 382.769 117.66 382.27 117.76C379.571 117.86 378.171 116.361 378.071 114.862Z" fill="#112544"/>
<path d="M362.276 129.149C361.877 128.749 361.877 128.15 362.176 127.75C362.576 127.35 363.176 127.35 363.576 127.65C366.775 130.548 370.574 127.75 370.674 127.55C371.073 127.251 371.773 127.251 372.073 127.75C372.373 128.15 372.373 128.849 371.873 129.149C369.174 131.447 365.175 131.847 362.276 129.149Z" fill="#E2805D"/>
<path d="M401.963 123.056C401.663 123.056 401.463 122.956 401.263 122.756C400.863 122.357 400.863 121.757 401.363 121.357L402.363 120.458C402.763 120.059 403.363 120.059 403.762 120.558C404.162 120.958 404.162 121.557 403.662 121.957L402.663 122.856C402.463 122.956 402.163 123.056 401.963 123.056Z" fill="#112544"/>
<path d="M372.173 142.439C372.173 142.439 379.97 142.539 388.867 139.042C389.667 138.742 390.267 139.442 389.967 140.141C388.568 143.139 384.269 148.834 371.073 150.033C371.473 147.535 371.873 144.937 372.173 142.439Z" fill="#E2805D"/>
<path d="M379.77 190.201C342.983 190.201 316.192 160.326 319.891 123.555C323.69 86.8852 356.478 57.1094 393.166 57.1094C429.853 57.1094 456.744 86.7853 453.045 123.755C449.247 160.226 416.758 190.201 379.77 190.201ZM393.166 59.1078C357.478 59.1078 325.489 88.0842 321.89 123.755C318.191 159.426 344.183 188.203 379.77 188.203C415.758 188.203 447.447 159.027 451.046 123.555C454.645 87.8844 428.754 59.1078 393.166 59.1078Z" fill="#112544"/>
<path d="M451.846 218.079L449.947 236.763C449.547 240.66 446.048 243.858 442.149 243.858H306.196C302.297 243.858 299.398 240.76 299.798 236.763L301.697 218.079C302.097 214.182 305.596 210.984 309.495 210.984H445.348C449.347 210.984 452.246 214.182 451.846 218.079Z" fill="white"/>
<path d="M450.846 227.869L449.947 236.762C449.547 240.659 446.048 243.856 442.149 243.856H306.196C304.596 243.856 303.197 243.357 302.097 242.457C303.597 240.259 307.095 239.46 309.894 239.26C349.081 236.162 387.668 243.856 426.755 237.961C432.453 237.062 438.351 235.863 443.649 233.165C446.248 231.766 448.747 229.967 450.846 227.869Z" fill="#E1E5FF"/>
<path d="M323.989 227.47C323.59 231.067 320.391 234.065 316.692 234.065C313.093 234.065 310.394 231.067 310.794 227.47C311.194 223.773 314.393 220.875 318.091 220.875C321.69 220.776 324.289 223.773 323.989 227.47ZM347.381 227.47C346.982 231.067 343.783 234.065 340.084 234.065C336.485 234.065 333.786 231.067 334.186 227.47C334.586 223.773 337.785 220.875 341.483 220.875C345.082 220.776 347.681 223.773 347.381 227.47ZM370.773 227.47C370.374 231.067 367.175 234.065 363.476 234.065C359.877 234.065 357.178 231.067 357.578 227.47C357.978 223.773 361.177 220.875 364.876 220.875C368.474 220.776 371.073 223.773 370.773 227.47ZM394.066 227.47C393.666 231.067 390.467 234.065 386.768 234.065C383.169 234.065 380.47 231.067 380.87 227.47C381.27 223.773 384.469 220.875 388.168 220.875C391.866 220.776 394.465 223.773 394.066 227.47ZM417.458 227.47C417.058 231.067 413.859 234.065 410.16 234.065C406.561 234.065 403.862 231.067 404.262 227.47C404.662 223.773 407.861 220.875 411.56 220.875C415.258 220.776 417.857 223.773 417.458 227.47ZM440.85 227.47C440.45 231.067 437.251 234.065 433.552 234.065C429.953 234.065 427.254 231.067 427.654 227.47C428.054 223.773 431.253 220.875 434.952 220.875C438.65 220.776 441.249 223.773 440.85 227.47Z" fill="#FFC25E"/>
<path d="M316.692 234.065C313.393 234.065 310.794 231.568 310.694 228.37C314.993 232.167 322.29 228.07 321.99 222.375C326.389 226.172 322.89 234.065 316.692 234.065ZM340.084 234.065C336.685 234.065 334.186 231.568 334.086 228.37C338.385 232.167 345.682 228.17 345.382 222.375C349.781 226.172 346.282 234.065 340.084 234.065ZM363.476 234.065C360.077 234.065 357.578 231.568 357.478 228.37C358.478 229.269 359.877 229.869 361.477 229.869C365.675 229.869 368.974 226.072 368.774 222.375C373.173 226.172 369.674 234.065 363.476 234.065ZM394.166 227.471C393.766 231.168 390.567 234.065 386.868 234.065C383.469 234.065 380.97 231.568 380.87 228.37C381.87 229.269 383.269 229.869 384.869 229.869C389.067 229.869 392.366 226.072 392.166 222.375C393.566 223.474 394.366 225.373 394.166 227.471ZM410.26 234.065C406.861 234.065 404.362 231.568 404.262 228.37C405.262 229.269 406.661 229.869 408.261 229.869C412.459 229.869 415.758 226.072 415.558 222.375C419.957 226.172 416.458 234.065 410.26 234.065ZM433.652 234.065C430.253 234.065 427.754 231.568 427.654 228.37C428.654 229.269 430.053 229.869 431.653 229.869C435.751 229.869 439.15 226.172 438.95 222.375C443.349 226.172 439.85 234.065 433.652 234.065Z" fill="#EFA130"/>
<path d="M442.049 244.856H306.196C301.697 244.856 298.398 241.159 298.798 236.663L300.698 217.978C301.197 213.581 305.096 209.984 309.495 209.984H445.348C449.847 209.984 453.146 213.681 452.746 218.178L450.846 236.863C450.447 241.259 446.448 244.856 442.049 244.856ZM309.595 211.983C306.196 211.983 303.097 214.78 302.797 218.178L300.897 236.863C300.598 240.16 302.997 242.858 306.296 242.858H442.149C445.548 242.858 448.647 240.06 448.947 236.663L450.846 217.978C451.146 214.581 448.747 211.983 445.448 211.983H309.595Z" fill="#112544"/>
<path d="M316.692 235.065C312.494 235.065 309.295 231.568 309.794 227.371C310.494 220.677 318.991 217.279 323.29 222.075C324.589 223.574 325.189 225.473 324.989 227.571C324.489 231.668 320.791 235.065 316.692 235.065ZM311.694 227.571C311.394 230.668 313.593 233.067 316.592 233.067C321.69 233.067 324.789 226.872 321.69 223.474C318.591 219.977 312.294 222.475 311.694 227.571ZM340.084 235.065C335.886 235.065 332.687 231.568 333.186 227.371C333.886 220.677 342.383 217.279 346.682 222.075C347.981 223.574 348.581 225.473 348.381 227.571C347.881 231.668 344.183 235.065 340.084 235.065ZM335.086 227.571C334.786 230.668 336.985 233.067 339.984 233.067C345.082 233.067 348.181 226.872 345.082 223.474C341.983 219.977 335.686 222.475 335.086 227.571ZM358.278 232.767C353.979 227.971 358.178 219.777 364.876 219.777C369.074 219.777 372.273 223.275 371.773 227.471C371.074 234.166 362.576 237.563 358.278 232.767ZM364.776 221.776C359.677 221.776 356.578 227.971 359.677 231.368C362.776 234.865 369.174 232.267 369.674 227.271C370.074 224.274 367.875 221.776 364.776 221.776ZM381.67 232.767C377.371 227.971 381.57 219.777 388.268 219.777C392.466 219.777 395.665 223.275 395.165 227.471C394.466 234.166 385.968 237.563 381.67 232.767ZM388.168 221.776C383.069 221.776 379.971 227.971 383.069 231.368C386.168 234.865 392.566 232.267 393.066 227.271C393.466 224.274 391.267 221.776 388.168 221.776ZM410.26 235.065C406.062 235.065 402.863 231.568 403.363 227.371C404.062 220.677 412.559 217.279 416.858 222.075C418.157 223.574 418.757 225.473 418.557 227.571C418.058 231.668 414.359 235.065 410.26 235.065ZM405.262 227.571C404.962 230.668 407.161 233.067 410.16 233.067C415.258 233.067 418.357 226.872 415.259 223.474C412.16 219.977 405.762 222.475 405.262 227.571ZM428.354 232.767C427.054 231.268 426.455 229.37 426.655 227.371C427.054 223.275 430.753 219.877 434.952 219.877C439.15 219.877 442.349 223.374 441.849 227.571C441.15 234.166 432.753 237.563 428.354 232.767ZM434.952 221.776C429.853 221.776 426.755 227.971 429.854 231.368C432.952 234.865 439.35 232.267 439.85 227.271C440.25 224.274 437.951 221.776 434.952 221.776Z" fill="#112544"/>
<path d="M446.548 269.133L444.648 287.818C444.249 291.715 440.75 294.912 436.851 294.912H300.997C297.099 294.912 294.2 291.815 294.6 287.818L296.499 269.133C296.899 265.236 300.398 262.039 304.296 262.039H440.15C444.149 262.039 446.948 265.236 446.548 269.133Z" fill="white"/>
<path d="M445.548 278.826L444.649 287.719C444.249 291.616 440.75 294.813 436.851 294.813H300.998C299.398 294.813 297.999 294.314 296.899 293.414C298.398 291.216 301.897 290.417 304.696 290.217C343.883 287.119 382.47 294.813 421.556 288.918C427.254 288.019 433.152 286.82 438.451 284.122C441.05 282.823 443.549 281.024 445.548 278.826Z" fill="#E1E5FF"/>
<path d="M318.691 278.427C318.291 282.024 315.093 285.021 311.394 285.021C307.795 285.021 305.096 282.024 305.496 278.427C305.896 274.73 309.095 271.832 312.793 271.832C316.492 271.832 319.091 274.83 318.691 278.427ZM342.083 278.427C341.684 282.024 338.485 285.021 334.786 285.021C331.187 285.021 328.488 282.024 328.888 278.427C329.288 274.73 332.487 271.832 336.185 271.832C339.884 271.832 342.483 274.83 342.083 278.427ZM365.475 278.427C365.076 282.024 361.877 285.021 358.178 285.021C354.579 285.021 351.88 282.024 352.28 278.427C352.68 274.73 355.879 271.832 359.577 271.832C363.176 271.832 365.875 274.83 365.475 278.427ZM388.867 278.427C388.468 282.024 385.269 285.021 381.57 285.021C377.971 285.021 375.272 282.024 375.672 278.427C376.072 274.73 379.271 271.832 382.969 271.832C386.568 271.832 389.267 274.83 388.867 278.427ZM412.259 278.427C411.86 282.024 408.661 285.021 404.962 285.021C401.363 285.021 398.664 282.024 399.064 278.427C399.464 274.73 402.663 271.832 406.361 271.832C409.96 271.832 412.659 274.83 412.259 278.427ZM435.651 278.427C435.252 282.024 432.053 285.021 428.354 285.021C424.655 285.021 422.056 282.024 422.456 278.427C422.856 274.73 426.055 271.832 429.753 271.832C433.352 271.832 436.051 274.83 435.651 278.427Z" fill="#FFC25E"/>
<path d="M318.691 278.426C318.292 282.123 315.093 285.021 311.394 285.021C308.095 285.021 305.496 282.523 305.396 279.325C306.396 280.224 307.795 280.824 309.395 280.824C313.593 280.824 316.892 277.027 316.692 273.33C318.192 274.529 318.891 276.328 318.691 278.426ZM342.083 278.426C341.684 282.123 338.485 285.021 334.786 285.021C331.387 285.021 328.888 282.523 328.788 279.325C329.788 280.224 331.187 280.824 332.787 280.824C336.985 280.824 340.284 277.027 340.084 273.33C341.584 274.529 342.283 276.328 342.083 278.426ZM365.476 278.426C365.076 282.123 361.877 285.021 358.178 285.021C354.779 285.021 352.28 282.523 352.18 279.325C353.18 280.224 354.579 280.824 356.179 280.824C360.377 280.824 363.676 277.027 363.476 273.33C364.976 274.529 365.675 276.328 365.476 278.426ZM388.868 278.426C388.468 282.123 385.269 285.021 381.57 285.021C378.171 285.021 375.672 282.523 375.572 279.325C376.572 280.224 377.971 280.824 379.571 280.824C383.769 280.824 387.068 277.027 386.868 273.33C388.368 274.529 389.067 276.328 388.868 278.426ZM412.26 278.426C411.86 282.123 408.661 285.021 404.962 285.021C401.563 285.021 399.064 282.523 398.964 279.325C399.964 280.224 401.363 280.824 402.963 280.824C407.161 280.824 410.46 277.027 410.26 273.33C411.76 274.529 412.46 276.328 412.26 278.426ZM435.652 278.426C435.252 282.123 432.053 285.021 428.354 285.021C424.955 285.021 422.456 282.523 422.356 279.325C423.356 280.224 424.755 280.824 426.355 280.824C430.453 280.824 433.852 277.127 433.652 273.33C435.052 274.529 435.851 276.328 435.652 278.426Z" fill="#EFA130"/>
<path d="M436.851 295.913H300.997C296.499 295.913 293.2 292.216 293.6 287.719L295.499 269.035C295.999 264.638 299.898 261.041 304.296 261.041H440.15C444.648 261.041 447.947 264.738 447.547 269.234L445.648 287.919C445.248 292.316 441.25 295.913 436.851 295.913ZM304.296 263.039C300.897 263.039 297.799 265.837 297.499 269.234L295.599 287.919C295.299 291.217 297.599 293.914 300.997 293.914H436.851C440.25 293.914 443.349 291.117 443.649 287.719L445.548 269.035C445.848 265.737 443.449 263.039 440.15 263.039H304.296Z" fill="#112544"/>
<path d="M311.494 286.022C307.295 286.022 304.096 282.524 304.596 278.328C304.996 274.231 308.695 270.834 312.893 270.834C317.092 270.834 320.291 274.331 319.791 278.528C319.291 282.724 315.592 286.022 311.494 286.022ZM312.793 272.832C309.694 272.832 306.795 275.43 306.496 278.528C306.196 281.625 308.395 284.023 311.394 284.023C314.493 284.023 317.392 281.425 317.692 278.328C318.092 275.23 315.792 272.832 312.793 272.832ZM334.786 286.022C330.587 286.022 327.388 282.524 327.888 278.328C328.288 274.231 331.987 270.834 336.185 270.834C340.384 270.834 343.583 274.331 343.083 278.528C342.683 282.724 338.984 286.022 334.786 286.022ZM336.185 272.832C333.086 272.832 330.187 275.43 329.888 278.528C329.588 281.625 331.787 284.023 334.786 284.023C337.885 284.023 340.784 281.425 341.084 278.328C341.384 275.23 339.184 272.832 336.185 272.832ZM358.178 286.022C353.979 286.022 350.78 282.524 351.28 278.328C351.68 274.231 355.379 270.834 359.577 270.834C363.776 270.834 366.975 274.331 366.475 278.528C366.075 282.724 362.376 286.022 358.178 286.022ZM359.577 272.832C356.479 272.832 353.579 275.43 353.28 278.528C352.98 281.625 355.179 284.023 358.178 284.023C361.277 284.023 364.176 281.425 364.476 278.328C364.776 275.23 362.576 272.832 359.577 272.832ZM381.57 286.022C377.371 286.022 374.172 282.624 374.672 278.328C375.072 274.231 378.771 270.834 382.969 270.834C387.168 270.834 390.367 274.331 389.867 278.528C389.467 282.724 385.769 286.022 381.57 286.022ZM382.969 272.832C379.871 272.832 376.971 275.43 376.672 278.528C376.372 281.525 378.471 284.023 381.57 284.023C384.669 284.023 387.568 281.425 387.868 278.328C388.168 275.23 385.968 272.832 382.969 272.832ZM404.962 286.022C400.763 286.022 397.564 282.624 398.064 278.328C398.464 274.231 402.163 270.834 406.361 270.834C410.56 270.834 413.759 274.331 413.259 278.528C412.859 282.724 409.161 286.022 404.962 286.022ZM406.361 272.832C403.263 272.832 400.364 275.43 400.064 278.528C399.764 281.525 401.863 284.023 404.962 284.023C408.061 284.023 410.96 281.425 411.26 278.328C411.56 275.23 409.36 272.832 406.361 272.832ZM428.354 286.022C424.155 286.022 420.956 282.624 421.456 278.328C421.856 274.231 425.555 270.834 429.754 270.834C433.952 270.834 437.151 274.331 436.651 278.528C436.251 282.724 432.553 286.022 428.354 286.022ZM429.754 272.832C426.655 272.832 423.756 275.43 423.456 278.528C423.156 281.525 425.255 284.023 428.354 284.023C431.453 284.023 434.352 281.425 434.652 278.328C434.952 275.23 432.753 272.832 429.754 272.832Z" fill="#112544"/>
<path d="M396.465 354.268H329.388C325.189 354.268 322.19 350.87 322.59 346.674L324.889 324.492C325.289 320.395 328.988 317.098 332.986 317.098H400.064C404.262 317.098 407.261 320.495 406.861 324.691L404.562 346.874C404.162 350.97 400.563 354.268 396.465 354.268ZM332.986 319.096C329.887 319.096 327.188 321.594 326.788 324.691L324.489 346.874C324.189 349.871 326.389 352.269 329.288 352.269H396.365C399.464 352.269 402.163 349.771 402.563 346.674L404.862 324.492C405.162 321.494 402.963 319.096 400.064 319.096H332.986Z" fill="#112544"/>
<path d="M154.547 500.746C152.648 507.64 150.848 515.334 149.849 522.229C148.849 528.723 148.549 534.619 149.349 538.615C150.349 543.212 154.447 546.609 159.146 546.509C178.639 546.109 228.122 543.811 228.822 538.316C229.922 529.023 216.626 523.028 207.429 519.631C203.131 518.032 199.532 515.034 197.233 511.238C195.933 509.139 195.033 506.741 194.634 504.243L154.547 500.746Z" fill="#FC6054"/>
<path d="M154.547 500.746C152.648 507.64 150.849 515.334 149.849 522.229C165.344 529.723 186.136 518.632 197.233 511.238C195.933 509.139 195.033 506.741 194.634 504.243L154.547 500.746Z" fill="#E64B38"/>
<path d="M153.748 539.218C153.248 539.118 152.848 538.618 152.948 538.019C153.048 537.519 153.548 537.12 154.147 537.219C183.637 542.515 221.424 533.423 221.724 533.423C222.224 533.323 222.824 533.622 222.924 534.122C223.024 534.622 222.724 535.221 222.224 535.321C203.331 540.017 174.241 543.015 153.748 539.218ZM200.731 520.533C200.332 520.133 200.432 519.534 200.831 519.134L204.63 515.737C205.03 515.337 205.63 515.437 206.03 515.837C206.43 516.236 206.33 516.836 205.93 517.236L202.131 520.633C201.731 520.933 201.131 520.933 200.731 520.533ZM204.63 523.231C204.23 522.831 204.33 522.232 204.73 521.832L208.529 518.435C208.929 518.035 209.528 518.135 209.928 518.535C210.328 518.934 210.228 519.534 209.828 519.933L206.03 523.331C205.63 523.63 204.93 523.63 204.63 523.231Z" fill="#112544"/>
<path d="M21.0929 479.164C16.4944 484.66 11.6961 490.855 7.79741 496.65C4.19864 502.145 1.39959 507.341 0.499896 511.338C-0.599729 515.934 1.79945 520.73 6.09798 522.629C23.9919 530.422 69.8762 549.107 72.7752 544.411C77.6736 536.418 68.0768 525.427 61.1792 518.532C57.8803 515.335 55.881 511.038 55.4811 506.642C55.1812 504.144 55.3812 501.646 56.0809 499.248L21.0929 479.164Z" fill="#FC6054"/>
<path d="M21.0928 479.164C16.4944 484.66 11.696 490.855 7.79736 496.65C18.6936 509.939 42.2856 508.54 55.3811 506.542C55.0812 504.044 55.2812 501.546 55.9809 499.148L21.0928 479.164Z" fill="#E64B38"/>
<path d="M213.827 386.842C212.128 417.717 207.329 505.146 207.329 505.146C207.329 507.444 204.53 509.242 200.232 510.341C198.233 510.841 195.933 511.241 193.434 511.54C174.641 513.739 143.451 509.742 143.451 501.948C143.451 501.948 148.25 416.318 145.85 386.842C143.351 355.967 118.66 264.241 118.66 264.241L184.137 245.057C184.137 245.057 186.836 250.153 190.535 259.245C200.132 282.326 216.826 331.287 213.827 386.842Z" fill="#FFC25E"/>
<path d="M200.132 510.341C198.132 510.841 195.833 511.241 193.334 511.54C174.54 513.739 143.351 509.742 143.351 501.948C143.351 501.948 148.149 416.318 145.75 386.842C143.251 355.967 118.56 264.241 118.56 264.241L184.037 245.057C184.037 245.057 186.736 250.153 190.435 259.245C189.735 259.945 189.136 260.544 188.636 261.144C178.839 271.935 169.442 283.426 162.744 296.415C159.046 303.709 156.147 311.403 154.647 319.496C151.848 334.484 153.648 349.872 155.547 364.959C158.446 388.44 161.345 411.921 164.244 435.402C166.343 452.688 168.543 469.974 170.642 487.36C171.342 492.955 172.441 499.35 177.14 502.548C184.137 507.044 196.233 502.947 200.132 510.341Z" fill="#EFA130"/>
<path d="M154.347 251.15C154.347 251.15 149.949 340.378 130.955 379.147C116.46 408.723 67.377 498.849 67.377 498.849C58.1802 509.441 3.79871 489.957 9.79666 480.065C9.79666 480.065 52.9819 399.83 58.1802 367.856C62.2788 342.376 55.681 289.02 84.1713 259.144L154.347 251.15Z" fill="#FFC25E"/>
<path d="M154.347 251.15C154.347 251.15 149.949 340.378 130.955 379.147C116.46 408.723 67.377 498.849 67.377 498.849C58.1802 509.441 3.79871 489.957 9.79666 480.065C9.79666 480.065 52.9819 399.83 58.1802 367.856C62.2788 342.376 55.681 289.02 84.1713 259.144L154.347 251.15Z" fill="#FFC25E"/>
<path d="M138.453 358.963C137.953 358.763 137.653 358.263 137.753 357.764C149.949 315.198 153.248 251.75 153.248 251.15C153.348 249.851 155.347 249.951 155.247 251.25C155.247 251.85 151.948 315.598 139.652 358.363C139.552 358.863 138.953 359.163 138.453 358.963ZM52.882 512.538C52.682 512.039 52.882 511.439 53.3818 511.239L58.0802 509.341C58.58 509.141 59.1798 509.341 59.3798 509.84C59.5797 510.34 59.3798 510.939 58.8799 511.139L54.1815 513.038C53.6817 513.337 53.0819 513.138 52.882 512.538ZM55.4811 516.435C55.2812 515.935 55.4811 515.336 55.9809 515.136L60.6793 513.238C61.1791 513.038 61.7789 513.238 61.9789 513.737C62.1788 514.237 61.9789 514.836 61.4791 515.036L56.7807 516.935C56.2808 517.234 55.781 517.035 55.4811 516.435ZM58.1802 520.332C57.9802 519.832 58.1802 519.233 58.68 519.033L63.3784 517.134C63.8782 516.935 64.478 517.134 64.678 517.634C64.8779 518.134 64.678 518.733 64.1781 518.933L59.4797 520.831C58.9799 521.131 58.3801 520.931 58.1802 520.332ZM65.6776 539.216C30.6896 529.424 6.69774 512.738 6.39784 512.538C5.89801 512.238 5.79804 511.639 6.1979 511.139C6.59777 510.64 7.0976 510.54 7.59743 510.939C7.79736 511.139 31.5892 527.626 66.1774 537.318C66.6773 537.418 66.9772 538.017 66.8772 538.517C66.7772 539.117 66.1774 539.416 65.6776 539.216ZM196.933 517.734C196.533 517.334 196.633 516.735 197.033 516.335L200.832 512.938C201.231 512.538 201.831 512.638 202.231 513.038C202.631 513.437 202.531 514.037 202.131 514.437L198.332 517.834C197.933 518.134 197.333 518.134 196.933 517.734ZM94.4678 313.5C93.968 313.4 93.5681 312.9 93.5681 312.401C93.6681 311.901 94.1679 311.501 94.6677 311.501C115.061 313.999 121.559 302.708 117.86 289.319C117.76 288.82 118.06 288.22 118.56 288.12C119.059 287.92 119.659 288.32 119.759 288.82C119.859 289.319 122.958 300.51 116.66 307.904C111.462 313.899 102.465 314.399 94.4678 313.5Z" fill="#112544"/>
<path d="M255.313 157.128C255.313 157.128 243.717 209.285 207.029 220.976C201.631 222.674 195.234 222.475 189.435 221.575C186.137 221.076 182.938 220.476 180.339 219.977C180.439 221.575 183.138 226.072 186.337 230.968C190.835 237.862 186.536 247.055 178.439 248.154C132.655 254.149 98.2666 273.034 77.8735 260.044C60.8793 249.153 41.5859 234.065 44.8848 188.202C45.0847 185.105 45.3846 181.908 45.8844 178.61C53.8817 116.561 101.865 113.263 126.257 115.262C134.154 115.961 152.648 121.257 159.346 125.553C180.439 139.242 193.634 179.609 193.634 179.609C193.634 179.609 204.23 164.622 224.723 149.434C229.022 146.237 233.72 143.039 238.819 140.042C238.819 149.434 248.016 154.63 255.313 157.128Z" fill="#20B757"/>
<path d="M165.044 250.351C125.657 257.745 96.1672 271.734 77.7734 260.044C60.7792 249.152 41.4858 234.065 44.7847 188.202C45.8843 188.702 46.9839 189.301 47.8836 190.1C55.581 195.996 57.4803 206.587 61.6789 215.38C70.8758 234.065 91.9686 244.256 112.462 247.654C129.856 250.451 147.55 249.552 165.044 250.351ZM255.313 157.127C255.313 157.127 243.717 209.285 207.029 220.975C201.631 222.674 195.333 222.474 189.435 221.675C189.235 220.676 189.435 219.676 190.035 218.977C191.035 217.778 192.734 217.678 194.234 217.578C207.929 216.479 221.125 210.084 230.521 199.992C239.918 189.901 245.316 176.312 245.416 162.523C245.416 159.725 245.116 156.727 243.317 154.729C241.717 152.931 239.218 152.331 236.819 152.131C234.42 151.931 232.021 152.231 229.622 151.831C227.622 151.532 225.823 150.732 224.523 149.433C228.822 146.236 233.52 143.039 238.619 140.041C238.818 149.333 248.015 154.629 255.313 157.127Z" fill="#1A9446"/>
<path d="M95.3676 265.539C88.4699 265.539 82.472 264.24 77.2738 260.943C76.7739 260.643 76.674 260.043 76.9739 259.544C77.2738 259.044 77.8736 258.944 78.3734 259.244C98.2666 271.934 132.455 253.249 178.239 247.254C180.838 246.954 183.238 245.555 184.837 243.557C185.137 243.157 185.837 243.057 186.237 243.357C186.636 243.657 186.736 244.356 186.437 244.756C184.437 247.254 181.638 248.853 178.539 249.252C144.051 253.749 115.961 265.539 95.3676 265.539ZM180.139 219.976C179.639 219.976 179.239 219.576 179.139 219.177C174.341 188.901 167.743 172.015 163.045 163.322C162.745 162.822 162.945 162.223 163.444 161.923C163.944 161.623 164.544 161.823 164.844 162.323C169.642 171.216 176.24 188.302 181.138 218.877C181.238 219.377 180.838 219.976 180.339 219.976C180.239 219.976 180.239 219.976 180.139 219.976ZM140.952 58.1074C140.952 58.1074 144.551 60.6054 140.452 70.2975L133.555 58.7069L140.952 58.1074Z" fill="#112544"/>
<path d="M137.153 104.869C136.754 104.869 132.055 104.469 131.555 104.469C131.655 112.263 132.655 117.159 132.555 117.558C130.556 127.35 102.265 127.25 102.065 116.759L102.965 83.8856L96.2673 65.6005L133.555 52.7109C133.555 52.7109 136.853 61.6037 142.052 70.7962C142.851 72.0952 143.851 74.1935 144.651 75.7922C150.149 87.2829 151.249 104.369 137.153 104.869Z" fill="#FCBBA4"/>
<path d="M101.166 116.759C101.166 116.16 101.565 115.76 102.165 115.76C102.665 115.76 103.165 116.16 103.165 116.759C103.365 125.852 129.856 126.152 131.655 117.359C131.755 116.859 132.255 116.46 132.855 116.56C133.355 116.66 133.754 117.159 133.654 117.759C131.355 128.65 101.365 128.45 101.166 116.759ZM143.651 53.2111C143.051 58.4069 138.753 61.3045 136.753 62.6034C122.958 71.9958 111.162 64.6018 111.162 64.6018C113.361 72.7952 106.264 73.7944 106.264 73.7944C108.963 74.8935 110.262 80.389 107.064 88.5824L99.0663 87.2834C98.6664 86.584 98.5664 85.6847 97.9666 85.1851C63.8783 53.311 110.462 32.1282 128.456 35.1257C137.653 36.6245 141.252 42.3199 142.651 47.0161C143.551 50.1136 143.651 52.7115 143.651 53.2111ZM132.555 69.5978C132.955 70.3971 134.354 69.3979 136.254 68.4987C138.153 67.5994 139.852 67.0998 139.452 66.3004C139.053 65.5011 137.253 65.7009 135.354 66.6002C133.455 67.3996 132.255 68.7984 132.555 69.5978Z" fill="#112544"/>
<path d="M119.459 74.8934C119.759 75.6928 121.259 74.6936 123.158 73.8942C125.057 72.9949 126.757 72.4953 126.457 71.7959C126.057 70.9966 124.258 71.0965 122.358 71.9958C120.459 72.7951 119.159 74.0941 119.459 74.8934Z" fill="#112544"/>
<path d="M134.354 83.7849C133.854 83.7849 133.354 83.3852 133.354 82.8856C133.354 82.2861 133.754 81.8864 134.254 81.7865C135.854 81.6866 137.753 80.8872 138.053 80.2877C137.553 79.888 134.454 79.0887 132.055 75.3917C131.755 74.8921 131.855 74.2926 132.355 73.9928C132.855 73.6931 133.454 73.793 133.754 74.2926C134.754 75.8913 136.353 77.2902 138.153 78.0895C138.753 78.3893 139.752 78.7889 139.952 79.7881C140.652 82.0863 136.853 83.585 134.354 83.7849Z" fill="#E2805D"/>
<path d="M109.363 82.7891C109.963 86.586 107.663 90.1831 104.265 90.7826C100.866 91.2822 97.5668 88.6843 96.967 84.7875C96.3672 80.8906 98.6664 77.3935 102.065 76.794C105.364 76.2944 108.663 78.9922 109.363 82.7891Z" fill="#FCBBA4"/>
<path d="M136.953 73.893C136.353 73.893 135.954 73.3934 136.054 72.7939C136.054 72.1944 136.553 71.7947 137.153 71.8947C138.953 71.9946 139.352 70.8955 139.352 70.6956C139.452 70.196 139.952 69.7964 140.552 69.8963C142.251 70.2959 140.852 74.0929 136.953 73.893ZM124.258 79.3886C123.658 79.3886 123.258 78.889 123.358 78.2895C123.358 77.6899 123.858 77.2903 124.457 77.3902C126.457 77.4901 126.657 76.2911 126.657 76.1912C126.757 75.6916 127.257 75.2919 127.856 75.3918C128.356 75.4917 128.756 75.9913 128.656 76.5908C128.256 78.1895 126.657 79.5884 124.258 79.3886Z" fill="#112544"/>
<path d="M133.255 91.0794C132.855 90.6797 132.755 90.0802 133.155 89.6805C133.555 89.2809 134.154 89.1809 134.554 89.5806C134.654 89.6805 138.153 92.5782 141.752 89.5806C142.152 89.1809 142.851 89.2809 143.151 89.6805C143.551 90.0802 143.451 90.7796 143.051 91.0794C139.852 93.6773 135.854 93.2776 133.255 91.0794Z" fill="#E2805D"/>
<path d="M102.965 84.4866L102.065 83.5873C101.665 83.1876 101.665 82.5881 102.065 82.1884C102.465 81.7888 103.065 81.7888 103.465 82.1884L104.364 83.0877C104.764 83.4874 104.764 84.0869 104.364 84.4866C103.965 84.8862 103.365 84.8862 102.965 84.4866Z" fill="#112544"/>
<path d="M131.655 104.469C131.655 104.469 123.858 104.568 115.161 101.071C114.461 100.772 113.661 101.471 113.961 102.17C115.061 105.168 118.86 110.963 132.055 112.162C131.755 109.564 131.655 106.966 131.655 104.469Z" fill="#E2805D"/>
<path d="M238.619 140.041C238.619 140.041 239.518 138.942 239.219 137.643C238.519 134.445 236.42 126.452 241.218 125.453C246.016 124.454 248.515 135.844 248.515 135.844C248.515 135.844 256.613 137.143 259.512 129.849C260.711 126.852 265.71 128.85 264.31 132.347C266.109 131.048 268.808 132.447 267.709 136.644C269.508 135.345 273.607 136.843 271.108 140.94C273.907 138.942 279.305 143.238 267.209 153.03C261.511 156.727 255.913 157.727 254.513 157.027C245.716 154.229 238.419 150.532 238.619 140.041Z" fill="#FCBBA4"/>
<path d="M251.214 147.334C251.114 147.334 251.014 147.334 251.014 147.334C250.515 147.235 250.115 146.635 250.315 146.135C252.214 138.242 248.515 136.843 248.415 136.843C247.916 136.643 247.616 136.144 247.816 135.544C248.015 135.044 248.515 134.745 249.015 134.945C249.215 135.044 254.613 136.843 252.214 146.635C252.014 147.035 251.614 147.334 251.214 147.334ZM262.411 135.644C262.011 135.344 261.911 134.645 262.211 134.245C263.11 133.146 263.41 132.147 263.41 132.047C263.61 131.547 264.21 131.248 264.71 131.447C265.21 131.647 265.51 132.247 265.31 132.746C265.31 132.846 264.81 134.045 263.81 135.444C263.51 135.844 262.91 135.944 262.411 135.644ZM263.61 141.739C263.31 141.339 263.41 140.64 263.81 140.34C266.109 138.741 266.909 136.343 266.909 136.243C267.109 135.744 267.709 135.444 268.209 135.644C268.708 135.844 269.008 136.443 268.808 136.943C268.808 137.043 267.709 139.94 264.91 141.939C264.51 142.239 263.91 142.139 263.61 141.739ZM269.008 144.437C268.608 144.037 268.508 143.438 268.908 143.038C270.008 141.739 270.508 140.44 270.508 140.44C270.708 139.94 271.308 139.641 271.807 139.841C272.307 140.04 272.607 140.64 272.407 141.139C272.407 141.239 271.807 142.738 270.508 144.337C270.108 144.737 269.408 144.836 269.008 144.437Z" fill="#E2805D"/>
<path d="M160.445 178.708C161.345 189 149.149 198.392 133.355 199.791C117.56 201.19 103.865 193.996 103.065 183.704C102.165 173.412 114.361 164.02 130.156 162.621C146.05 161.222 159.546 168.416 160.445 178.708Z" fill="white"/>
<path d="M202.731 190.002C181.138 277.031 185.537 259.445 184.937 261.844C184.237 264.741 181.638 266.839 178.739 266.839H139.553C135.954 266.839 133.555 263.542 134.454 259.945C155.847 173.715 151.649 190.501 152.248 188.103C152.948 185.206 155.547 183.107 158.446 183.107H197.633C201.232 183.107 203.631 186.405 202.731 190.002Z" fill="white"/>
<path d="M199.732 202.092L184.937 261.943C184.237 264.841 181.638 266.939 178.739 266.939H139.553C135.954 266.939 133.555 263.642 134.454 260.045L136.354 252.451C137.353 252.151 138.453 251.951 139.453 251.851C146.15 250.952 152.848 251.851 159.546 250.552C170.942 248.354 180.739 239.661 187.336 229.569C190.535 224.574 193.134 219.278 195.234 213.882C196.533 210.585 197.733 205.889 199.732 202.092Z" fill="#E1E5FF"/>
<path d="M178.739 267.939H139.553C135.354 267.939 132.455 264.042 133.455 259.846L151.249 188.004C152.048 184.707 155.047 182.309 158.346 182.309H197.533C201.731 182.309 204.63 186.205 203.631 190.402L185.937 262.144C185.037 265.441 182.038 267.939 178.739 267.939ZM158.446 184.107C156.047 184.107 153.848 185.906 153.248 188.304L135.454 260.245C134.754 263.243 136.654 265.941 139.553 265.941H178.739C181.138 265.941 183.338 264.142 183.937 261.744L201.731 189.902C202.431 186.905 200.532 184.207 197.633 184.207H158.446V184.107Z" fill="#112544"/>
<path d="M158.446 183.107C155.647 183.107 153.048 185.206 152.248 188.103L134.454 259.945C133.555 263.542 135.954 266.839 139.553 266.839H133.455C129.856 266.839 127.457 263.542 128.356 259.945L146.15 188.103C146.85 185.206 149.449 183.107 152.348 183.107H158.446Z" fill="#FFC25E"/>
<path d="M139.553 267.939H133.455C129.256 267.939 126.357 264.042 127.357 259.846L145.151 188.004C145.95 184.707 148.949 182.309 152.248 182.309H158.346C158.946 182.309 159.346 182.708 159.346 183.308C159.346 183.907 158.946 184.307 158.346 184.307C155.947 184.307 153.748 186.106 153.148 188.504L135.454 260.245C134.754 263.143 136.654 265.941 139.553 265.941C140.152 265.941 140.552 266.34 140.552 266.94C140.552 267.539 140.152 267.939 139.553 267.939ZM152.448 184.107C150.049 184.107 147.85 185.906 147.25 188.304L129.356 260.245C128.956 261.744 129.256 263.243 130.156 264.342C131.755 266.44 134.154 265.841 134.954 265.941C133.555 264.342 132.955 262.144 133.455 259.846L151.249 188.004C151.649 186.505 152.448 185.206 153.448 184.307H152.448V184.107Z" fill="#112544"/>
<path d="M180.939 208.986C179.939 213.083 175.84 216.48 171.742 216.48C167.743 216.48 165.244 213.183 166.344 208.986C167.343 204.889 171.442 201.492 175.54 201.492C179.539 201.492 181.938 204.79 180.939 208.986Z" fill="#20B757"/>
<path d="M180.939 208.987C179.939 213.084 175.84 216.481 171.742 216.481C168.943 216.481 166.943 214.882 166.344 212.584C167.243 213.184 168.343 213.484 169.642 213.484C173.641 213.484 177.74 210.186 178.839 205.99C179.139 204.691 179.139 203.492 178.839 202.393C180.739 203.692 181.638 206.09 180.939 208.987Z" fill="#1A9446"/>
<path d="M171.742 217.378C166.943 217.378 164.144 213.282 165.344 208.686C166.443 204.189 171.042 200.492 175.44 200.492C180.139 200.492 183.038 204.489 181.838 209.185C180.738 213.781 176.24 217.378 171.742 217.378ZM175.54 202.491C171.941 202.491 168.243 205.488 167.343 209.185C166.443 212.782 168.543 215.38 171.742 215.38C175.34 215.38 179.039 212.383 179.939 208.686C180.339 206.887 180.139 205.288 179.239 204.089C178.439 203.09 177.14 202.491 175.54 202.491Z" fill="#112544"/>
<path d="M118.76 242.259C120.559 245.456 142.052 246.056 142.352 242.459C142.452 240.76 136.953 240.66 136.354 240.46C139.852 240.66 145.95 241.16 145.95 238.862C145.95 237.063 140.252 236.863 139.253 236.564C143.151 236.663 147.45 237.163 147.45 234.865C147.45 233.266 142.152 232.667 140.852 232.367C143.651 232.367 148.949 233.766 148.949 231.368C148.949 227.971 136.354 227.271 136.354 227.271L138.153 220.876C138.153 220.876 134.054 219.378 128.056 222.575C126.457 223.474 118.26 224.773 117.16 225.872C112.262 230.768 115.361 236.164 118.76 242.259Z" fill="#FCBBA4"/>
<path d="M122.258 245.554C122.258 245.554 38.2871 262.74 28.8903 219.476C28.1905 216.178 27.6907 212.881 27.3908 209.684C22.9923 156.727 77.7736 123.953 77.7736 123.953L89.2697 136.043C92.4686 138.441 96.0673 142.738 96.3672 150.332C96.967 168.417 61.3792 214.38 61.3792 214.38C79.7729 209.284 102.465 215.679 114.261 219.975C119.259 221.774 122.258 223.173 122.258 223.173C119.559 228.568 119.659 239.659 122.258 245.554Z" fill="#20B757"/>
<path d="M122.258 245.554C122.258 245.554 38.2869 262.741 28.8901 219.476C28.1904 216.178 27.6905 212.881 27.3906 209.684C28.3903 216.578 32.6888 222.873 38.2869 226.77C43.885 230.766 50.6827 232.765 57.2804 234.663C66.2774 237.261 75.2743 239.959 84.4712 241.358C93.668 242.757 103.265 242.857 112.262 240.359C114.261 239.759 116.66 238.66 116.86 236.562C116.96 234.164 114.261 232.865 112.562 231.066C109.663 228.069 109.663 222.173 114.261 219.875C119.259 221.674 122.258 223.073 122.258 223.073C119.559 228.568 119.659 239.659 122.258 245.554Z" fill="#1A9446"/>
<path d="M86.6706 250.051C73.0752 250.051 58.1803 248.352 46.5843 242.557C46.0844 242.357 45.8845 241.757 46.0844 241.258C46.2844 240.758 46.8841 240.558 47.384 240.758C71.8756 252.948 113.262 246.154 120.759 244.855C118.56 238.66 118.56 229.068 120.759 223.672C115.161 221.274 84.6713 208.884 61.4792 215.279C60.4795 215.579 59.7797 214.379 60.4795 213.68C60.8794 213.28 96.2673 172.613 95.6675 155.028C95.4676 147.834 91.8688 143.737 88.9698 141.539C88.5699 141.239 88.47 140.539 88.7699 140.14C89.0698 139.74 89.7695 139.64 90.1694 139.94C93.4683 142.338 97.3669 146.934 97.6668 154.928C98.2666 170.915 71.6757 203.488 63.9783 212.581C89.7695 207.185 121.059 221.574 122.458 222.173C122.958 222.373 123.158 223.072 122.958 223.572C120.459 228.668 120.459 239.359 122.958 245.254C123.258 245.854 122.858 246.453 122.258 246.653C121.259 246.853 105.264 250.051 86.6706 250.051Z" fill="#112544"/>
<path d="M53.6817 217.478C53.3819 216.978 53.5818 216.379 53.9816 216.079C56.1809 214.78 58.5801 213.781 61.1792 213.281C61.679 213.181 62.2788 213.581 62.3788 214.08C62.4787 214.58 62.0789 215.179 61.5791 215.279C59.1799 215.779 56.9806 216.578 55.0813 217.777C54.5815 218.077 53.9816 217.977 53.6817 217.478Z" fill="#112544"/>
<path d="M163.644 105.67C163.145 105.471 162.845 104.971 163.045 104.371C166.643 93.9798 172.841 79.4916 186.037 73.9961C188.636 72.8969 191.235 72.2974 193.834 72.1975C197.833 65.2032 204.63 59.308 213.127 55.8108C232.921 47.8173 266.709 52.5135 285.503 62.0058C297.999 68.3007 307.695 77.8929 312.893 88.9839C313.093 89.4835 312.893 90.083 312.394 90.2828C311.894 90.4827 311.294 90.2828 311.094 89.7832C306.196 79.0919 296.799 69.8994 284.703 63.8043C266.309 54.5119 233.221 49.9156 213.927 57.6093C206.23 60.7068 200.032 65.9026 196.133 72.0976C207.429 72.6971 213.227 82.3892 211.128 89.8831C209.429 96.178 201.631 100.075 195.933 96.9774C188.836 93.1805 188.636 82.689 192.634 74.1959C190.635 74.3957 188.636 74.9952 186.736 75.7946C177.34 79.7913 170.342 89.0838 164.844 104.971C164.744 105.57 164.144 105.77 163.644 105.67ZM195.034 74.096C191.235 81.49 190.535 91.7816 196.933 95.2788C201.431 97.7767 207.829 94.3795 209.229 89.3836C211.028 82.9887 205.83 74.096 195.034 74.096Z" fill="#112544"/>
<path d="M311.694 90.3811L303.297 87.8831C302.797 87.6833 302.497 87.1837 302.597 86.6841C302.797 86.1845 303.297 85.8848 303.796 85.9847L311.194 88.1829L313.493 80.7889C313.693 80.2893 314.193 79.9895 314.693 80.0895C315.192 80.2893 315.492 80.7889 315.392 81.2885L312.893 89.6817C312.793 90.1813 312.193 90.481 311.694 90.3811Z" fill="#112544"/>
<path d="M318.591 538.319C318.591 538.319 295.699 510.041 310.494 500.749C321.39 493.855 335.985 509.342 335.985 509.342C335.985 509.342 333.586 492.156 341.484 491.057C349.381 490.058 359.977 501.848 359.977 501.848C359.977 501.848 353.479 444.295 379.87 443.496C406.261 442.696 416.158 508.343 416.158 508.343C416.158 508.343 423.755 494.654 433.352 499.45C443.049 504.246 434.952 523.031 434.952 523.031C434.952 523.031 448.447 508.543 456.544 513.739C464.342 518.734 458.344 538.319 458.344 538.319" fill="white" fill-opacity="0.3"/>
<path d="M457.944 539.217C457.444 539.017 457.144 538.518 457.244 538.018C458.844 532.722 461.643 518.234 455.845 514.537C448.547 509.841 435.751 523.53 435.551 523.73C434.752 524.529 433.452 523.63 433.852 522.631C433.952 522.431 441.449 504.645 432.752 500.249C424.055 495.952 416.858 508.642 416.858 508.742C416.358 509.541 415.158 509.341 414.958 508.442C414.858 507.843 404.962 444.394 380.17 444.394C379.97 444.394 379.87 444.394 379.67 444.394C359.677 444.994 358.578 482.363 360.777 501.648C360.877 502.647 359.677 503.146 359.078 502.447C358.978 502.347 348.781 491.056 341.484 492.055C335.985 492.755 336.085 503.846 336.885 509.142C336.985 510.141 335.885 510.64 335.186 509.941C335.086 509.841 321.09 495.153 310.994 501.548C300.198 508.442 311.394 527.826 319.391 537.618C319.691 538.018 319.691 538.718 319.291 539.017C318.891 539.317 318.191 539.317 317.892 538.917C308.795 527.727 297.798 507.643 309.994 499.849C319.091 494.054 330.287 502.647 334.786 506.644C334.386 500.249 334.986 490.856 341.384 490.057C347.681 489.258 355.179 495.653 358.678 499.05C356.978 477.967 358.578 442.995 379.77 442.396C403.962 441.696 414.459 493.055 416.658 505.545C420.157 500.648 426.654 494.953 433.752 498.45C441.25 502.247 439.15 513.238 437.251 519.333C441.849 515.237 450.746 508.842 456.944 512.839C465.241 518.134 459.443 537.718 459.243 538.618C459.043 539.117 458.444 539.417 457.944 539.217Z" fill="#20B757" fill-opacity="0.3"/>
<path d="M415.358 506.946C415.358 506.646 413.259 472.873 436.251 437.402C436.551 436.902 437.151 436.802 437.651 437.102C438.151 437.402 438.251 438.002 437.951 438.501C415.258 473.373 417.358 506.446 417.358 506.846C417.358 507.445 416.958 507.845 416.458 507.945C415.858 507.945 415.358 507.545 415.358 506.946ZM352.58 538.32C352.58 538.32 341.783 524.931 348.781 520.534C353.879 517.237 360.777 524.631 360.777 524.631C360.777 524.631 359.577 516.438 363.376 516.038C367.075 515.539 372.073 521.134 372.073 521.134C372.073 521.134 368.974 493.956 381.47 493.556C393.966 493.157 398.664 524.232 398.664 524.232C398.664 524.232 402.263 517.737 406.861 520.035C411.46 522.333 407.661 531.226 407.661 531.226C407.661 531.226 414.859 523.432 417.858 526.829C420.857 530.227 419.857 538.52 419.857 538.52H352.58V538.32Z" fill="#20B757" fill-opacity="0.3"/>
<path d="M453.745 430.306C452.546 436.801 446.348 440.997 439.85 439.798C433.352 438.599 429.154 432.404 430.353 425.909C431.553 419.415 437.751 415.218 444.249 416.417C450.646 417.616 454.945 423.811 453.745 430.306ZM358.178 501.248C358.178 500.949 356.179 468.475 330.387 437.001C330.087 436.601 330.087 435.901 330.487 435.602C330.887 435.302 331.587 435.302 331.887 435.702C358.178 467.775 360.177 500.749 360.177 501.148C360.177 501.748 359.777 502.148 359.277 502.148C358.678 502.148 358.178 501.748 358.178 501.248Z" fill="#20B757" fill-opacity="0.3"/>
<path d="M319.291 433.102C320.591 437.199 324.889 439.397 328.988 438.198C333.086 436.899 335.286 432.603 334.086 428.506C332.786 424.409 328.488 422.211 324.389 423.41C320.291 424.709 317.992 429.006 319.291 433.102Z" fill="#20B757" fill-opacity="0.3"/>
<path d="M466.541 539.317H284.703C284.103 539.317 283.703 538.917 283.703 538.318C283.703 537.718 284.103 537.318 284.703 537.318H466.541C467.141 537.318 467.541 537.718 467.541 538.318C467.541 538.917 467.141 539.317 466.541 539.317Z" fill="#CCD2FF"/>
</svg>
